# xmcd CD database file
#
# Track frame offsets:
#	150
#	18442
#	35152
#	59777
#	69784
#	85109
#	100717
#	125061
#	134556
#	147879
#	174773
#
# Disc length: 2549 seconds
#
# Revision: 3
# Processed by: cddbd v1.4PL0 Copyright (c) Steve Scherf et al.
# Submitted via: CDex 1.50beta10
#
DISCID=9809f30b
DTITLE=Mara Tremblay - Papillons
DYEAR=2001
DGENRE=Country
TTITLE0=Elvis
TTITLE1=Les bois d'amours
TTITLE2=La Chinoisse
TTITLE3=L'amour du monde
TTITLE4=On a du violon
TTITLE5=Laveuses
TTITLE6=Déniaise
TTITLE7=Le protocole
TTITLE8=Papillons chrysanthèmes
TTITLE9=Lettre au gardien
TTITLE10=Les Aurores
EXTD=YEAR: 2001
EXTT0=
EXTT1=
EXTT2=
EXTT3=
EXTT4=
EXTT5=
EXTT6=
EXTT7=
EXTT8=
EXTT9=
EXTT10=
PLAYORDER=
